<?xml version="1.0" encoding="UTF-8"?>
<svg version="1.1" xmlns="http://www.w3.org/2000/svg" width="200" height="200">
<path d="M0 0 C0.97631882 -0.0049649 1.95263763 -0.00992981 2.95854187 -0.01504517 C6.18517771 -0.02963588 9.41176433 -0.036465 12.63842773 -0.04199219 C14.88939922 -0.04774783 17.14037069 -0.05350551 19.39134216 -0.05926514 C24.11311063 -0.06976748 28.83486212 -0.07561463 33.55664062 -0.07910156 C39.5830466 -0.0845732 45.60922516 -0.10857617 51.63556004 -0.13707352 C56.28808732 -0.15577687 60.94056079 -0.16090967 65.59312248 -0.16243744 C67.81329524 -0.16544903 70.0334674 -0.17342658 72.25360298 -0.18662262 C87.1411506 -0.26876781 100.39017851 -0.25856156 113.25952148 8.16113281 C114.12577148 8.71800781 114.99202148 9.27488281 115.88452148 9.84863281 C122.05619796 15.85789675 126.24138664 22.79363526 128.25952148 31.16113281 C128.43167175 31.83055405 128.60382202 32.49997528 128.78118896 33.18968201 C129.45915824 37.40129687 129.41540801 41.55032776 129.4206543 45.80981445 C129.4256192 46.7763797 129.43058411 47.74294495 129.43569946 48.73880005 C129.45028927 51.93297035 129.45711916 55.12709092 129.46264648 58.32128906 C129.46840222 60.5498403 129.4741599 62.77839153 129.47991943 65.00694275 C129.49042154 69.68163279 129.49626883 74.35630568 129.49975586 79.03100586 C129.50522728 84.9968787 129.52922985 90.96252178 129.55772781 96.92832279 C129.57643266 101.534527 129.58156405 106.14067685 129.58309174 110.74691582 C129.58610302 112.94476001 129.59407952 115.1426036 129.60727692 117.34041023 C129.7071398 135.25522616 128.90105884 150.51410521 116.20483398 164.30957031 C110.40450408 169.83036625 103.99055357 173.20015935 96.25952148 175.16113281 C95.58558853 175.33400818 94.91165558 175.50688354 94.21730042 175.68499756 C90.06954882 176.35269139 85.98933424 176.31699019 81.79443359 176.32226562 C80.84737549 176.32723053 79.90031738 176.33219543 78.92456055 176.33731079 C75.79532132 176.35189873 72.66613286 176.35873022 69.53686523 176.36425781 C67.3531545 176.37001376 65.16944376 176.37577143 62.98573303 176.38153076 C58.40519984 176.39203238 53.82468415 176.39787997 49.24414062 176.40136719 C43.399334 176.40683815 37.55476195 176.43083992 31.71002865 176.45933914 C27.19647059 176.47804707 22.682968 176.48317554 18.16937447 176.48470306 C16.0161874 176.48771372 13.86300093 176.49568804 11.70985222 176.50888824 C-6.0647716 176.6100452 -21.21850055 175.7109103 -34.88891602 163.10253906 C-44.71464113 152.80003826 -46.88421687 140.3582253 -46.90161133 126.58251953 C-46.90657623 125.6353154 -46.91154114 124.68811127 -46.91665649 123.71220398 C-46.93122233 120.58840193 -46.93807168 117.4646507 -46.94360352 114.34082031 C-46.94936061 112.15853882 -46.95511827 109.97625732 -46.96087646 107.79397583 C-46.97137134 103.219419 -46.97722356 98.64487967 -46.98071289 94.0703125 C-46.98618701 88.23338165 -47.01019847 82.39668531 -47.03868484 76.5598278 C-47.05739118 72.05056096 -47.06252113 67.54134963 -47.06404877 63.03204727 C-47.06705901 60.88165127 -47.07503192 58.73125587 -47.08823395 56.58089828 C-47.17196889 41.89069704 -47.04554225 28.85526504 -38.74047852 16.16113281 C-38.18360352 15.29488281 -37.62672852 14.42863281 -37.05297852 13.53613281 C-30.67077184 6.98143406 -23.6368234 3.10487203 -14.74047852 1.16113281 C-14.06843887 0.98898254 -13.39639923 0.81683228 -12.70399475 0.63946533 C-8.46603742 -0.04457101 -4.28636992 0.00522556 0 0 Z " fill="#0C5D88" transform="translate(58.740478515625,11.8388671875)"/>
<path d="M0 0 C0.66 0 1.32 0 2 0 C2.07412765 5.21440513 2.12859104 10.42850393 2.16479492 15.64331055 C2.17988641 17.41745343 2.20036191 19.19155898 2.22631836 20.96557617 C2.26268641 23.51490487 2.27972238 26.06374059 2.29296875 28.61328125 C2.30845261 29.40712723 2.32393646 30.20097321 2.33988953 31.01887512 C2.3415929 36.58577171 2.3415929 36.58577171 0.46606445 38.86010742 C-0.01773682 39.23627197 -0.50153809 39.61243652 -1 40 C-0.75794651 43.31818985 -0.75794651 43.31818985 1 46 C3.95804573 46.33340471 3.95804573 46.33340471 7 46 C9.30075262 43.23254916 9.30075262 43.23254916 8.75 40.375 C8.5025 39.59125 8.255 38.8075 8 38 C7.34 37.67 6.68 37.34 6 37 C6 24.79 6 12.58 6 0 C9 1 9 1 10.76171875 4.5078125 C11.41224123 6.04326171 12.05358503 7.58262016 12.6875 9.125 C16.80108137 18.75670642 21.09987521 28.57255362 27.234375 37.109375 C29.11849723 40.19399988 29.62348793 41.4784478 29 45 C27.828125 47.0703125 27.828125 47.0703125 26.25 49.125 C21.72051397 55.52838686 19.5285501 62.35724948 18 70 C8.76 70 -0.48 70 -10 70 C-10.804375 66.844375 -10.804375 66.844375 -11.625 63.625 C-13.50260897 56.99616547 -16.00307162 49.99692838 -21 45 C-21.69085714 40.19023511 -19.59973504 37.23481421 -17.0625 33.375 C-11.94746384 25.25926574 -7.93716308 16.74398003 -3.94628906 8.03466797 C-2.68729811 5.32764253 -1.35375653 2.66068501 0 0 Z " fill="#7FEEF9" transform="translate(96,84)"/>
<path d="M0 0 C2.31229325 1.84393924 4.56412436 3.71646216 6.7578125 5.69921875 C6.2628125 8.17421875 6.2628125 8.17421875 5.7578125 10.69921875 C3.5078125 11.390625 3.5078125 11.390625 0.7578125 11.69921875 C-1.2421875 10.4765625 -1.2421875 10.4765625 -3.2421875 8.63671875 C-16.25357197 -2.19169258 -31.80096926 -5.26492676 -48.2421875 -4.30078125 C-60.05317872 -2.9938273 -73.55453852 1.64621128 -81.88671875 10.43359375 C-82.33402344 10.85125 -82.78132813 11.26890625 -83.2421875 11.69921875 C-85.9296875 11.38671875 -85.9296875 11.38671875 -88.2421875 10.69921875 C-88.5721875 9.04921875 -88.9021875 7.39921875 -89.2421875 5.69921875 C-63.00066583 -16.72845921 -28.57445264 -20.27753326 0 0 Z " fill="#7AEAF5" transform="translate(141.2421875,46.30078125)"/>
<path d="M0 0 C2.4296875 2.0859375 2.4296875 2.0859375 4 4 C3.75 6.75 3.75 6.75 3 9 C-1.50714771 9.42963818 -3.60145862 8.26388229 -7.25 5.6875 C-17.54027548 -1.17730642 -29.40437164 -3.77128605 -41.6875 -1.50390625 C-48.37839708 0.34654497 -54.61851229 3.34537414 -60.08984375 7.640625 C-62.53438177 9.38029623 -64.06326752 9.31748459 -67 9 C-68 8 -68 8 -68.33203125 5.65625 C-68 3 -68 3 -66.19921875 1.15625 C-44.70356754 -13.0181763 -21.73574177 -14.5087445 0 0 Z " fill="#7DEDF8" transform="translate(132,60)"/>
<path d="M0 0 C0.66 0 1.32 0 2 0 C7 5.47619048 7 5.47619048 7 8 C7.54279602 8.25625153 8.08559204 8.51250305 8.64483643 8.77651978 C11 10 11 10 13.57147217 11.69882202 C25.17986215 18.70181961 36.86086327 17.94901539 50.078125 17.7890625 C52.50038206 17.78360943 54.92264648 17.7808385 57.34490967 17.78060913 C62.39828041 17.77291607 67.45077265 17.74212757 72.50390625 17.69287109 C78.96192539 17.63047871 85.41910762 17.61202502 91.87739944 17.60907936 C96.87046393 17.60436705 101.86335279 17.58355045 106.85634613 17.55720139 C109.23723685 17.54519434 111.61814653 17.53646185 113.99906158 17.531147 C117.32945094 17.51986466 120.65906674 17.48864563 123.98925781 17.45166016 C124.95989166 17.45144867 125.93052551 17.45123718 126.93057251 17.45101929 C136.54596832 17.30203813 145.36279372 15.06380036 153 9 C154.37705764 7.36927384 155.72722111 5.7133562 157 4 C157.66 4 158.32 4 159 4 C156.16958334 10.79299998 148.65657366 15.21113848 142.13654613 18.15341663 C135.29281654 20.86517069 128.36480421 21.2952931 121.08081055 21.2746582 C120.13316833 21.27976913 119.18552612 21.28488007 118.20916748 21.29014587 C115.10161886 21.30395364 111.99429426 21.30309157 108.88671875 21.30078125 C106.70872415 21.30467336 104.53073031 21.30900908 102.35273743 21.31376648 C97.79608699 21.32121002 93.23951406 21.3209512 88.68286133 21.31567383 C82.86953638 21.30988548 77.05653069 21.32680419 71.24325848 21.3500185 C66.74685336 21.3648158 62.25052405 21.36561933 57.75409889 21.36250877 C55.61208273 21.3630191 53.47006201 21.368202 51.32806969 21.37832069 C33.36492964 21.45276425 18.51776656 20.36549114 4.6640625 7.78125 C2.47244758 5.435296 1.16230223 2.97839947 0 0 Z " fill="#0C5263" transform="translate(19,167)"/>
<path d="M0 0 C1.65234375 1.6953125 1.65234375 1.6953125 1.9609375 4.328125 C1.65234375 6.6953125 1.65234375 6.6953125 0.65234375 7.6953125 C-4.04005406 8.54847574 -6.76478149 6.42408495 -10.48046875 3.88671875 C-16.20195512 0.23597954 -23.82586415 1.18685678 -30.34765625 1.6953125 C-34.35314783 2.92018022 -37.3605291 4.70818535 -40.34765625 7.6953125 C-42.91015625 7.8828125 -42.91015625 7.8828125 -45.34765625 7.6953125 C-46.34765625 6.6953125 -46.34765625 6.6953125 -46.625 4.328125 C-46.34765625 1.6953125 -46.34765625 1.6953125 -44.9140625 0 C-30.24193305 -10.46783505 -14.90697394 -9.32641447 0 0 Z " fill="#7BEAF6" transform="translate(122.34765625,73.3046875)"/>
<path d="M0 0 C1.26981216 -0.00639748 1.26981216 -0.00639748 2.5652771 -0.01292419 C3.49615143 -0.01247101 4.42702576 -0.01201782 5.3861084 -0.0115509 C6.36520172 -0.01490952 7.34429504 -0.01826813 8.35305786 -0.02172852 C11.60562392 -0.03126357 14.85813858 -0.03318339 18.11071777 -0.03425598 C20.37076845 -0.03746851 22.63081891 -0.04083258 24.89086914 -0.04434204 C29.6389616 -0.0503409 34.38703585 -0.05218134 39.13513184 -0.05158997 C45.20324735 -0.05148869 51.27124494 -0.06510146 57.33933258 -0.08236217 C62.01322967 -0.09351661 66.68709866 -0.09550806 71.36100769 -0.09498024 C73.59678043 -0.09615668 75.83255399 -0.10055954 78.0683136 -0.10831261 C81.20818138 -0.118175 84.34779856 -0.11520906 87.4876709 -0.10920715 C88.40235138 -0.11482666 89.31703186 -0.12044617 90.25942993 -0.12623596 C96.36386007 -0.09677449 102.01522797 0.73351598 107.95446777 2.13371277 C107.95446777 2.79371277 107.95446777 3.45371277 107.95446777 4.13371277 C70.33446777 3.80371277 32.71446777 3.47371277 -6.04553223 3.13371277 C-6.04553223 2.47371277 -6.04553223 1.81371277 -6.04553223 1.13371277 C-3.77147403 -0.00331633 -2.52524209 0.00573934 0 0 Z " fill="#11619A" transform="translate(53.0455322265625,11.866287231445313)"/>
<path d="M0 0 C9.9 0 19.8 0 30 0 C30.33 2.97 30.66 5.94 31 9 C20.44 9 9.88 9 -1 9 C-0.67 6.03 -0.34 3.06 0 0 Z " fill="#7AE9F4" transform="translate(85,158)"/>
<path d="M0 0 C0.66 0 1.32 0 2 0 C2.15396789 11.37007412 2.3021481 22.74020759 2.4429636 34.11045265 C2.5085329 39.39024609 2.57608684 44.66999851 2.64819336 49.94970703 C2.71772152 55.04599317 2.78201423 60.14232105 2.84269524 65.23871994 C2.86674945 67.18196379 2.89268213 69.12518533 2.92053413 71.06837845 C2.95925611 73.79245774 2.99126646 76.51654019 3.02172852 79.24072266 C3.03467453 80.04201599 3.04762054 80.84330933 3.06095886 81.66888428 C3.10076969 85.90301337 2.84831538 89.82760393 2 94 C1.34 94 0.68 94 0 94 C0 62.98 0 31.96 0 0 Z " fill="#09565E" transform="translate(12,51)"/>
<path d="M0 0 C-2.3961609 2.3961609 -4.31050512 2.88203272 -7.5 4 C-16.53146294 7.64732157 -22.10388251 14.49585046 -28 22 C-27.6602911 16.56465768 -24.6110847 12.82861992 -21 9 C-14.48453872 3.67106042 -8.64162991 -0.40193627 0 0 Z " fill="#1F6D90" transform="translate(45,14)"/>
<path d="M0 0 C0.66 0 1.32 0 2 0 C-0.84875434 6.83701042 -8.43418354 11.22096562 -14.9375 14.2890625 C-18.54211149 15.53156116 -22.20995887 15.82453513 -26 16 C-25 14 -25 14 -22.33984375 13.10546875 C-21.21707031 12.80253906 -20.09429687 12.49960938 -18.9375 12.1875 C-10.68079032 9.74307937 -5.18154011 6.97515015 0 0 Z " fill="#124D64" transform="translate(176,171)"/>
<path d="M0 0 C0.99 0.33 1.98 0.66 3 1 C3 1.99 3 2.98 3 4 C2.34 4 1.68 4 1 4 C1 16.54 1 29.08 1 42 C0.67 42 0.34 42 0 42 C0 28.14 0 14.28 0 0 Z " fill="#156588" transform="translate(185,47)"/>
<path d="M0 0 C0.66 0 1.32 0 2 0 C2 12.21 2 24.42 2 37 C1.67 37 1.34 37 1 37 C0.67 26.11 0.34 15.22 0 4 C-0.99 4.495 -0.99 4.495 -2 5 C-1.34 3.35 -0.68 1.7 0 0 Z " fill="#72DDE9" transform="translate(96,84)"/>
<path d="M0 0 C2 2 2 2 2.1171875 4.1015625 C1.39804632 11.59454962 -0.86003275 16.79004913 -5 23 C-5.66 22.67 -6.32 22.34 -7 22 C-6.38125 20.989375 -5.7625 19.97875 -5.125 18.9375 C-1.70890027 12.92613016 -0.71378969 6.78100209 0 0 Z " fill="#11526A" transform="translate(185,147)"/>
<path d="M0 0 C5.08012485 1.69337495 7.33514262 6.53669208 10 11 C10.96386388 13.3803247 11.50490332 15.46950588 12 18 C8.90616598 15.2376482 6.98432069 12.38271207 5.015625 8.7421875 C3.90763534 6.7438465 3.90763534 6.7438465 1.75 4.1875 C0 2 0 2 0 0 Z " fill="#1F6B8A" transform="translate(174,23)"/>
<path d="M0 0 C0.33 0 0.66 0 1 0 C1 2.97 1 5.94 1 9 C1.66 9 2.32 9 3 9 C3 10.32 3 11.64 3 13 C2.34 13 1.68 13 1 13 C-0.32229189 10.35541621 -0.09677194 8.32238699 -0.0625 5.375 C-0.05347656 4.37210938 -0.04445312 3.36921875 -0.03515625 2.3359375 C-0.02355469 1.56507813 -0.01195312 0.79421875 0 0 Z " fill="#0C6077" transform="translate(185,136)"/>
<path d="M0 0 C0.66 0.33 1.32 0.66 2 1 C0.02 3.97 -1.96 6.94 -4 10 C-4.33 9.01 -4.66 8.02 -5 7 C-4.00390625 5.17578125 -4.00390625 5.17578125 -2.5625 3.3125 C-2.08941406 2.68988281 -1.61632812 2.06726563 -1.12890625 1.42578125 C-0.75636719 0.95527344 -0.38382813 0.48476563 0 0 Z " fill="#216193" transform="translate(22,26)"/>
<path d="M0 0 C3.78786597 0.5260925 6.17152224 1.38103911 9 4 C9 4.66 9 5.32 9 6 C5.06326356 4.68775452 2.77280706 3.08089673 0 0 Z " fill="#226894" transform="translate(164,17)"/>
<path d="M0 0 C0.66 0 1.32 0 2 0 C1.34 3.63 0.68 7.26 0 11 C-0.33 11 -0.66 11 -1 11 C-1.02688151 9.35425434 -1.04634123 7.70838587 -1.0625 6.0625 C-1.07410156 5.14597656 -1.08570313 4.22945312 -1.09765625 3.28515625 C-1 1 -1 1 0 0 Z " fill="#1A6588" transform="translate(15,38)"/>
</svg>
